<svg preserveAspectRatio="none" width="100%" height="100%" overflow="visible" style="display: block;" viewBox="0 0 1145.44 836.227" fill="none" xmlns="http://www.w3.org/2000/svg">
<path id="line-10" d="M24.0063 524.013C41.413 516.889 58.8646 509.56 74.5419 498.346C120.293 466.892 153.693 397.318 261.983 368.013C337.862 347.48 311.011 358.525 369.522 338.984C413.279 324.37 417.585 236.42 471.665 209.806C540.438 175.96 605.002 277.531 695.798 284.524C752.706 279.303 803.571 280.186 832.964 239.037C864.62 194.72 913.96 66.8305 926.47 52.2996C947.673 26.3496 986.641 16.3708 1016.96 30.3359C1047.37 43.581 1072.57 74.1604 1076.21 111.066C1081.02 181.047 981.925 172.302 978.556 238.707C980.442 294.388 1038.73 286.698 1075.07 303.853C1085.33 308.302 1095.26 314.551 1103.21 323.116C1138.16 360.87 1118.48 417.451 1077.16 436.174C996.007 473.878 916.363 390.653 834.046 411.022C754.447 430.722 724.768 530.011 778.874 603.977C809.577 646.284 867.098 649.679 906.987 625.246C935.669 609.121 959.32 582.065 989.125 568.229C1037.48 543.77 1094.55 583.505 1079.77 646.619C1067.49 690.726 1022.03 711.506 996.492 747.306C982.073 766.287 972.482 789.331 963.767 812.22" stroke="url(#paint0_linear_0_77)" stroke-width="48" stroke-miterlimit="10" stroke-linecap="round"/>
<defs>
<linearGradient id="paint0_linear_0_77" x1="1056.45" y1="808.429" x2="521.665" y2="484.796" gradientUnits="userSpaceOnUse">
<stop offset="0.2" stop-color="#FF7676"/>
<stop offset="0.4" stop-color="#CB9FD2"/>
<stop offset="0.6" stop-color="#24CB71"/>
<stop offset="0.8" stop-color="#4D49FC"/>
<stop offset="1" stop-color="#F9DC1F"/>
</linearGradient>
</defs>
</svg>
