<svg preserveAspectRatio="none" width="100%" height="100%" overflow="visible" style="display: block;" viewBox="0 0 173.729 250" fill="none" xmlns="http://www.w3.org/2000/svg">
<path id="Union" d="M126.943 0C152.782 0 173.729 20.9068 173.729 46.6965C173.729 61.9272 166.423 75.4548 155.118 83.9788C153.895 84.9015 153.895 86.7953 155.118 87.718C166.423 96.242 173.729 109.77 173.729 125C173.729 150.79 152.782 171.697 126.943 171.697L100.779 171.697C97.2692 171.697 94.4235 174.542 94.4235 178.053V202.878C94.4235 228.956 73.0183 250 46.9972 250C21.2116 250 9.16298e-05 229.146 0 203.304C0 188.073 7.3056 174.546 18.6099 166.022C19.8335 165.099 19.8335 163.205 18.6099 162.282C7.3056 153.758 0 140.231 0 125C4.0167e-05 109.77 7.30585 96.242 18.6104 87.718C19.8341 86.7953 19.8341 84.9015 18.6104 83.9788C7.30585 75.4548 5.3547e-05 61.9272 0 46.6965C0 20.9068 20.9467 0 46.7855 0H126.943Z" fill="var(--fill-0, #F5F5F5)"/>
</svg>
