<svg viewBox="0 0 529.127 100" fill="none" xmlns="http://www.w3.org/2000/svg">
<path id="Union" d="M228.657 0C230.682 0 232.324 1.64162 232.324 3.66667V22.5657C232.324 23.6077 233.787 23.9919 234.348 23.1138C243.229 9.21525 258.793 4.06469e-07 276.51 0H323.64C325.593 0 327.177 1.58369 327.177 3.53711V24.5511C327.177 25.6239 328.737 25.9913 329.273 25.0619C337.909 10.0829 354.086 3.80858e-07 372.619 0H479.127C506.741 0 529.127 22.3858 529.127 50C529.127 77.6142 506.741 100 479.127 100H372.619C351.281 100 333.066 86.6345 325.887 67.8189C325.538 66.9036 324.139 66.8988 323.783 67.8118C316.457 86.6434 298.077 100 276.676 100C258.927 100 243.269 90.7509 234.347 76.8094C233.785 75.9321 232.324 76.3166 232.324 77.3581V96.3333C232.324 98.3584 230.682 100 228.657 100H50C22.3858 100 0 77.6142 0 50C0 22.3858 22.3858 8.29571e-07 50 0H228.657Z" fill="white"/>
</svg>
